<svg xmlns="http://www.w3.org/2000/svg" viewBox="0 0 1000 1000">
  <path fill="#2E77BC" d="M0 148.14v703.72h1000V148.14H0zm410.54 433.1l-47.87-115.49h-62.34v165.64h35.9v-121.1l50.48 121.1h35.9l50.48-121.1v121.1h35.9V465.75h-62.34l-36.11 115.49zm-170.72 50.15H116.18v-35.9h114.75v-31.68H116.18v-31.68h123.64v-31.68H80.28v165.64h159.54v-34.7zm507.37 0H623.55v-35.9h114.75v-31.68H623.55v-31.68h123.64v-31.68H587.65v165.64h159.54v-34.7zm-195.44 0h-47.87l-63.54-165.64h40.12l38.98 106.6 38.98-106.6h40.12l-46.79 165.64z"/>
</svg> 