<svg width="300" height="80" viewBox="0 0 300 80" xmlns="http://www.w3.org/2000/svg">
  <g fill="none" fill-rule="evenodd">
    <!-- VISA -->
    <path fill="#1434CB" d="M65 17h-12.8L40.5 50.9l-1.7-8.9-5-25H21.6L34.3 63h12.8L65 17zm89.5 0l-10 46h11.9l10-46h-11.9zm-42.2 31c0 9 8.7 15.6 19.3 15.6 5.5 0 10-1 13.6-2.8v-10.6c-3.4 1.8-7.2 2.8-11.5 2.8-4.5 0-8.6-1.6-8.6-5.2 0-2.5 2.4-3.9 6-3.9 3.6 0 7.3 1 11.4 2.8V36.1c-3.8-1.4-7.7-2-11.4-2-9.7 0-18.8 5.3-18.8 13.9zm-30.6-17.2c-3.8-1.4-7.7-2-11.4-2-9.7 0-18.8 5.3-18.8 13.9 0 9 8.7 15.6 19.3 15.6 5.5 0 10-1 13.6-2.8v-10.6c-3.4 1.8-7.2 2.8-11.5 2.8-4.5 0-8.6-1.6-8.6-5.2 0-2.5 2.4-3.9 6-3.9 3.6 0 7.3 1 11.4 2.8V36.1z"/>
    <!-- Mastercard -->
    <circle fill="#EA001B" cx="147" cy="40" r="15"/>
    <circle fill="#F79E1B" cx="162" cy="40" r="15"/>
    <path fill="#FF5F00" d="M154.5 29.2a15 15 0 010 21.6 15 15 0 000-21.6z"/>
    <!-- American Express -->
    <path fill="#006FCF" d="M200 17h-30v46h30c12.7 0 23-10.3 23-23S212.7 17 200 17zm0 36h-20V27h20c7.2 0 13 5.8 13 13s-5.8 13-13 13z"/>
    <!-- Apple Pay -->
    <path fill="#000000" d="M270 17c-12.7 0-23 10.3-23 23s10.3 23 23 23 23-10.3 23-23-10.3-23-23-23zm0 36c-7.2 0-13-5.8-13-13s5.8-13 13-13 13 5.8 13 13-5.8 13-13 13z"/>
    <!-- Google Pay -->
    <path fill="#4285F4" d="M270 17c-12.7 0-23 10.3-23 23s10.3 23 23 23 23-10.3 23-23-10.3-23-23-23zm0 36c-7.2 0-13-5.8-13-13s5.8-13 13-13 13 5.8 13 13-5.8 13-13 13z"/>
    <!-- Stripe -->
    <path fill="#635BFF" d="M270 17c-12.7 0-23 10.3-23 23s10.3 23 23 23 23-10.3 23-23-10.3-23-23-23zm0 36c-7.2 0-13-5.8-13-13s5.8-13 13-13 13 5.8 13 13-5.8 13-13 13z"/>
  </g>
</svg> 