<svg xmlns="http://www.w3.org/2000/svg" viewBox="0 0 1000.046 323.653">
  <path fill="#00579F" d="M433.98 318.498l-52.75-246.994h84.214l52.752 246.994z"/>
  <path fill="#00579F" d="M740.547 76.019c-16.706-6.272-42.908-13.125-75.645-13.125-83.377 0-142.084 42.088-142.504 102.429-.421 44.625 41.943 69.517 73.932 84.371 32.738 15.19 43.826 24.906 43.617 38.451-.209 20.801-26.157 30.308-50.385 30.308-33.644 0-51.505-4.655-79.147-16.18l-10.814-4.864-11.764 68.675c19.595 8.576 55.838 16.016 93.452 16.391 88.241 0 145.636-41.685 146.267-106.194.421-35.322-22.348-62.213-71.376-84.371-29.746-14.349-47.995-23.927-47.786-38.451.209-12.881 15.343-26.64 48.503-26.64 27.745-.525 47.891 5.602 63.443 11.927l7.604 3.561 11.503-67.288"/>
  <path fill="#00579F" d="M834.857 318.498h68.675l-42.717-246.994h-63.443c-14.349 0-26.43 7.814-31.926 20.067l-112.492 226.927h84.214l15.604-40.76h95.885l7.604 40.76zm-73.932-97.774l39.576-102.429 22.768 102.429h-62.344z"/>
  <path fill="#00579F" d="M284.206 71.504L203.803 246.16l-8.576-41.181c-14.978-48.083-61.649-100.205-113.783-126.216l73.512 239.316 86.93-.421L345.855 71.504z"/>
  <path fill="#FAA61A" d="M131.92 71.504H4.481L0 74.016c98.384 23.717 163.518 81.059 190.677 149.898l-27.535-131.97c-4.655-18.329-18.539-19.175-31.222-20.44"/>
</svg> 